<mxfile host="app.diagrams.net" modified="2021-03-14T19:38:47.870Z" agent="5.0 (Windows NT 10.0; Win64; x64) AppleWebKit/537.36 (KHTML, like Gecko) Chrome/89.0.4389.86 Safari/537.36" etag="SbCLLyMA1AsBlHkDU2gS" version="14.4.8" type="github">
  <diagram id="R2lEEEUBdFMjLlhIrx00" name="Page-1">
    <mxGraphModel dx="1888" dy="1609" grid="1" gridSize="10" guides="1" tooltips="1" connect="1" arrows="1" fold="1" page="1" pageScale="1" pageWidth="850" pageHeight="1100" background="#F1FAEE" math="0" shadow="0" extFonts="Permanent Marker^https://fonts.googleapis.com/css?family=Permanent+Marker">
      <root>
        <mxCell id="0" />
        <mxCell id="1" parent="0" />
        <mxCell id="oK6NmRHTHddR3aEeu7Fa-5" value="" style="edgeStyle=orthogonalEdgeStyle;rounded=0;orthogonalLoop=1;jettySize=auto;html=1;labelBackgroundColor=#F1FAEE;strokeColor=#457B9D;fontColor=#1D3557;" edge="1" parent="1" source="oK6NmRHTHddR3aEeu7Fa-1" target="oK6NmRHTHddR3aEeu7Fa-4">
          <mxGeometry relative="1" as="geometry" />
        </mxCell>
        <mxCell id="oK6NmRHTHddR3aEeu7Fa-6" value="" style="edgeStyle=orthogonalEdgeStyle;rounded=0;orthogonalLoop=1;jettySize=auto;html=1;labelBackgroundColor=#F1FAEE;strokeColor=#457B9D;fontColor=#1D3557;" edge="1" parent="1" source="oK6NmRHTHddR3aEeu7Fa-1" target="oK6NmRHTHddR3aEeu7Fa-4">
          <mxGeometry relative="1" as="geometry" />
        </mxCell>
        <mxCell id="oK6NmRHTHddR3aEeu7Fa-8" value="" style="edgeStyle=orthogonalEdgeStyle;rounded=0;orthogonalLoop=1;jettySize=auto;html=1;labelBackgroundColor=#F1FAEE;strokeColor=#457B9D;fontColor=#1D3557;" edge="1" parent="1" source="oK6NmRHTHddR3aEeu7Fa-1" target="oK6NmRHTHddR3aEeu7Fa-7">
          <mxGeometry relative="1" as="geometry" />
        </mxCell>
        <mxCell id="oK6NmRHTHddR3aEeu7Fa-10" value="" style="edgeStyle=orthogonalEdgeStyle;rounded=0;orthogonalLoop=1;jettySize=auto;html=1;labelBackgroundColor=#F1FAEE;strokeColor=#457B9D;fontColor=#1D3557;" edge="1" parent="1" source="oK6NmRHTHddR3aEeu7Fa-1" target="oK6NmRHTHddR3aEeu7Fa-9">
          <mxGeometry relative="1" as="geometry" />
        </mxCell>
        <mxCell id="oK6NmRHTHddR3aEeu7Fa-1" value="customer&amp;nbsp;" style="rounded=0;whiteSpace=wrap;html=1;fillColor=#A8DADC;strokeColor=#457B9D;fontColor=#1D3557;" vertex="1" parent="1">
          <mxGeometry x="40" y="50" width="120" height="60" as="geometry" />
        </mxCell>
        <mxCell id="oK6NmRHTHddR3aEeu7Fa-12" value="" style="edgeStyle=orthogonalEdgeStyle;rounded=0;orthogonalLoop=1;jettySize=auto;html=1;labelBackgroundColor=#F1FAEE;strokeColor=#457B9D;fontColor=#1D3557;" edge="1" parent="1" source="oK6NmRHTHddR3aEeu7Fa-2" target="oK6NmRHTHddR3aEeu7Fa-11">
          <mxGeometry relative="1" as="geometry" />
        </mxCell>
        <mxCell id="oK6NmRHTHddR3aEeu7Fa-2" value="phone&amp;nbsp;&lt;br&gt;" style="rounded=0;whiteSpace=wrap;html=1;fillColor=#A8DADC;strokeColor=#457B9D;fontColor=#1D3557;" vertex="1" parent="1">
          <mxGeometry x="330" y="40" width="120" height="70" as="geometry" />
        </mxCell>
        <mxCell id="oK6NmRHTHddR3aEeu7Fa-16" value="" style="edgeStyle=orthogonalEdgeStyle;rounded=0;orthogonalLoop=1;jettySize=auto;html=1;labelBackgroundColor=#F1FAEE;strokeColor=#457B9D;fontColor=#1D3557;" edge="1" parent="1" source="oK6NmRHTHddR3aEeu7Fa-3" target="oK6NmRHTHddR3aEeu7Fa-15">
          <mxGeometry relative="1" as="geometry" />
        </mxCell>
        <mxCell id="oK6NmRHTHddR3aEeu7Fa-18" value="" style="edgeStyle=orthogonalEdgeStyle;rounded=0;orthogonalLoop=1;jettySize=auto;html=1;labelBackgroundColor=#F1FAEE;strokeColor=#457B9D;fontColor=#1D3557;" edge="1" parent="1" source="oK6NmRHTHddR3aEeu7Fa-3" target="oK6NmRHTHddR3aEeu7Fa-17">
          <mxGeometry relative="1" as="geometry" />
        </mxCell>
        <mxCell id="oK6NmRHTHddR3aEeu7Fa-3" value="calls&lt;br&gt;" style="rounded=0;whiteSpace=wrap;html=1;fillColor=#A8DADC;strokeColor=#457B9D;fontColor=#1D3557;" vertex="1" parent="1">
          <mxGeometry x="650" y="45" width="120" height="60" as="geometry" />
        </mxCell>
        <mxCell id="oK6NmRHTHddR3aEeu7Fa-4" value="name&amp;nbsp;" style="ellipse;whiteSpace=wrap;html=1;rounded=0;fillColor=#A8DADC;strokeColor=#457B9D;fontColor=#1D3557;" vertex="1" parent="1">
          <mxGeometry x="40" y="180" width="120" height="80" as="geometry" />
        </mxCell>
        <mxCell id="oK6NmRHTHddR3aEeu7Fa-7" value="location&lt;br&gt;" style="ellipse;whiteSpace=wrap;html=1;rounded=0;fillColor=#A8DADC;strokeColor=#457B9D;fontColor=#1D3557;" vertex="1" parent="1">
          <mxGeometry x="-170" y="280" width="120" height="80" as="geometry" />
        </mxCell>
        <mxCell id="oK6NmRHTHddR3aEeu7Fa-9" value="&lt;font face=&quot;Permanent Marker&quot; data-font-src=&quot;https://fonts.googleapis.com/css?family=Permanent+Marker&quot;&gt;&lt;b&gt;&lt;u&gt;number of passport&lt;/u&gt;&lt;/b&gt;&lt;/font&gt;" style="ellipse;whiteSpace=wrap;html=1;rounded=0;fillColor=#A8DADC;strokeColor=#457B9D;fontColor=#1D3557;" vertex="1" parent="1">
          <mxGeometry x="-140" y="-60" width="120" height="80" as="geometry" />
        </mxCell>
        <mxCell id="oK6NmRHTHddR3aEeu7Fa-11" value="&lt;font face=&quot;Permanent Marker&quot; data-font-src=&quot;https://fonts.googleapis.com/css?family=Permanent+Marker&quot; style=&quot;font-size: 18px&quot;&gt;&lt;u&gt;&lt;b&gt;phone number&amp;nbsp;&lt;/b&gt;&lt;/u&gt;&lt;/font&gt;" style="ellipse;whiteSpace=wrap;html=1;rounded=0;fillColor=#A8DADC;strokeColor=#457B9D;fontColor=#1D3557;" vertex="1" parent="1">
          <mxGeometry x="300" y="185" width="120" height="80" as="geometry" />
        </mxCell>
        <mxCell id="oK6NmRHTHddR3aEeu7Fa-13" value="" style="endArrow=none;html=1;exitX=1;exitY=0.75;exitDx=0;exitDy=0;entryX=0;entryY=0.5;entryDx=0;entryDy=0;labelBackgroundColor=#F1FAEE;strokeColor=#457B9D;fontColor=#1D3557;" edge="1" parent="1" source="oK6NmRHTHddR3aEeu7Fa-1" target="oK6NmRHTHddR3aEeu7Fa-2">
          <mxGeometry width="50" height="50" relative="1" as="geometry">
            <mxPoint x="250" y="120" as="sourcePoint" />
            <mxPoint x="300" y="70" as="targetPoint" />
          </mxGeometry>
        </mxCell>
        <mxCell id="oK6NmRHTHddR3aEeu7Fa-14" value="" style="endArrow=none;html=1;exitX=1;exitY=0.5;exitDx=0;exitDy=0;entryX=-0.017;entryY=0.633;entryDx=0;entryDy=0;entryPerimeter=0;labelBackgroundColor=#F1FAEE;strokeColor=#457B9D;fontColor=#1D3557;" edge="1" parent="1" source="oK6NmRHTHddR3aEeu7Fa-2" target="oK6NmRHTHddR3aEeu7Fa-3">
          <mxGeometry width="50" height="50" relative="1" as="geometry">
            <mxPoint x="600" y="130" as="sourcePoint" />
            <mxPoint x="650" y="80" as="targetPoint" />
          </mxGeometry>
        </mxCell>
        <mxCell id="oK6NmRHTHddR3aEeu7Fa-15" value="date&lt;br&gt;" style="ellipse;whiteSpace=wrap;html=1;rounded=0;fillColor=#A8DADC;strokeColor=#457B9D;fontColor=#1D3557;" vertex="1" parent="1">
          <mxGeometry x="650" y="175" width="120" height="80" as="geometry" />
        </mxCell>
        <mxCell id="oK6NmRHTHddR3aEeu7Fa-17" value="time spent&lt;br&gt;" style="ellipse;whiteSpace=wrap;html=1;rounded=0;fillColor=#A8DADC;strokeColor=#457B9D;fontColor=#1D3557;" vertex="1" parent="1">
          <mxGeometry x="550" y="-80" width="120" height="80" as="geometry" />
        </mxCell>
      </root>
    </mxGraphModel>
  </diagram>
</mxfile>
